<svg width="150" height="120" viewBox="0 0 150 120" fill="none" xmlns="http://www.w3.org/2000/svg">
<rect x="16.2067" y="61.0664" width="28.8598" height="3.20664" fill="#00B934"/>
<rect x="16.2067" y="54.6531" width="28.8598" height="3.20664" fill="#00B934"/>
<rect x="16.2067" y="48.2398" width="28.8598" height="3.20664" fill="#00B934"/>
<rect x="19.4133" y="41.8265" width="6.41328" height="3.20664" fill="#00B934"/>
<rect x="19.4133" y="35.4133" width="6.41328" height="3.20664" fill="#00B934"/>
<rect x="35.4465" y="35.4133" width="6.41328" height="3.20664" fill="#00B934"/>
<rect x="35.4465" y="41.8265" width="6.41328" height="3.20664" fill="#00B934"/>
<rect x="22.6199" y="29" width="16.0332" height="3.20664" fill="#00B934"/>
<rect x="61.0996" y="32.2066" width="10.856" height="5.34438" fill="#00B934"/>
<rect x="61.0996" y="41.1138" width="10.856" height="5.34438" fill="#00B934"/>
<rect x="61.0996" y="50.0211" width="10.856" height="5.34438" fill="#00B934"/>
<rect x="76.2984" y="50.0211" width="10.8561" height="5.34438" fill="#00B934"/>
<rect x="76.2984" y="41.1138" width="10.8561" height="5.34438" fill="#00B934"/>
<rect x="82.8119" y="32.2066" width="10.856" height="5.34438" fill="#00B934"/>
<rect x="82.8119" y="58.9286" width="10.856" height="5.34438" fill="#00B934"/>
<rect x="61.0996" y="58.9286" width="10.856" height="5.34438" fill="#00B934"/>
<rect x="100.112" y="32.2066" width="10.8561" height="5.34438" fill="#00B934"/>
<rect x="100.112" y="41.1138" width="10.8561" height="5.34438" fill="#00B934"/>
<rect x="100.112" y="41.1138" width="10.8561" height="5.34438" fill="#00B934"/>
<rect x="104.455" y="50.0211" width="10.856" height="5.34438" fill="#00B934"/>
<rect x="110.968" y="58.9286" width="10.856" height="5.34438" fill="#00B934"/>
<rect x="119.653" y="50.0211" width="10.8561" height="5.34438" fill="#00B934"/>
<rect x="123.996" y="41.1138" width="10.856" height="5.34438" fill="#00B934"/>
<rect x="123.996" y="32.2066" width="10.856" height="5.34438" fill="#00B934"/>
<path d="M21.6194 76.031C23.8342 76.031 25.7571 76.8316 27.3882 78.4328C29.0193 80.034 29.8349 82.0242 29.8349 84.4036C29.8349 86.7679 29.0567 88.7881 27.5004 90.4641C25.9441 92.1251 24.0287 92.9557 21.7541 92.9557C19.4796 92.9557 17.5417 92.1326 15.9405 90.4866C14.3543 88.8405 13.5612 86.8802 13.5612 84.6056C13.5612 83.3635 13.7856 82.2038 14.2346 81.1264C14.6835 80.034 15.2821 79.1212 16.0303 78.3879C16.7785 77.6546 17.6389 77.0785 18.6116 76.6595C19.5843 76.2405 20.5869 76.031 21.6194 76.031ZM17.5342 84.4933C17.5342 85.8252 17.9607 86.9101 18.8136 87.7481C19.6816 88.5711 20.6468 88.9826 21.7092 88.9826C22.7717 88.9826 23.7294 88.5786 24.5824 87.7705C25.4354 86.9625 25.8618 85.8775 25.8618 84.5158C25.8618 83.154 25.4279 82.0616 24.5599 81.2386C23.707 80.4156 22.7493 80.004 21.6868 80.004C20.6243 80.004 19.6666 80.423 18.8136 81.261C17.9607 82.0841 17.5342 83.1615 17.5342 84.4933ZM49.8927 77.4003L55.9533 89.9254C56.2077 90.4342 56.3349 90.8158 56.3349 91.0702C56.3349 91.6089 55.9009 92.0952 55.033 92.5292C54.5242 92.7836 54.1201 92.9108 53.8209 92.9108C53.5365 92.9108 53.2971 92.8434 53.1026 92.7088C52.923 92.5741 52.7883 92.4319 52.6985 92.2823C52.6237 92.1326 52.5115 91.9082 52.3618 91.6089L51.1946 89.1847H44.9769L43.8097 91.6089C43.6601 91.9082 43.5404 92.1251 43.4506 92.2598C43.3758 92.3945 43.2411 92.5367 43.0465 92.6863C42.867 92.821 42.6275 92.8883 42.3283 92.8883C42.0439 92.8883 41.6474 92.7611 41.1386 92.5067C40.2707 92.0877 39.8367 91.6089 39.8367 91.0702C39.8367 90.8158 39.9639 90.4342 40.2183 89.9254L46.2788 77.3778C46.4434 77.0336 46.6904 76.7568 47.0196 76.5473C47.3638 76.3378 47.7229 76.233 48.097 76.233C48.9051 76.233 49.5037 76.6221 49.8927 77.4003ZM48.0746 82.7874L46.5931 85.8626H49.5785L48.0746 82.7874ZM77.4086 76.8391C77.5582 76.5997 77.7752 76.4351 78.0596 76.3453C78.3439 76.2555 78.6955 76.2106 79.1145 76.2106C79.5485 76.2106 79.8927 76.248 80.1471 76.3228C80.4015 76.3976 80.596 76.4874 80.7307 76.5922C80.8654 76.6969 80.9626 76.8541 81.0225 77.0636C81.1123 77.318 81.1572 77.707 81.1572 78.2308V85.0096C81.1572 86.9849 80.5436 88.7806 79.3166 90.3968C78.718 91.1599 77.9473 91.781 77.0046 92.2598C76.0618 92.7237 75.0143 92.9557 73.8621 92.9557C72.7248 92.9557 71.6848 92.7162 70.742 92.2374C69.8142 91.7585 69.0585 91.13 68.4749 90.3519C67.2628 88.7657 66.6567 86.9699 66.6567 84.9647V78.2083C66.6567 77.8492 66.6642 77.5873 66.6792 77.4227C66.7091 77.2431 66.7839 77.0411 66.9037 76.8166C67.0234 76.5922 67.2254 76.4351 67.5097 76.3453C67.794 76.2555 68.1756 76.2106 68.6545 76.2106C69.1333 76.2106 69.5149 76.2555 69.7992 76.3453C70.0836 76.4351 70.2781 76.5922 70.3829 76.8166C70.5624 77.1608 70.6522 77.6322 70.6522 78.2308V84.9647C70.6522 85.8775 70.8767 86.7455 71.3256 87.5685C71.5501 87.9875 71.8868 88.3242 72.3357 88.5786C72.7846 88.833 73.3159 88.9602 73.9294 88.9602C75.0218 88.9602 75.8374 88.5562 76.3761 87.7481C76.9148 86.94 77.1841 86.0047 77.1841 84.9423V78.0736C77.1841 77.49 77.259 77.0785 77.4086 76.8391ZM94.2342 76.2106H106.714C107.193 76.2106 107.545 76.2704 107.769 76.3902C107.994 76.4949 108.144 76.667 108.218 76.9064C108.293 77.1459 108.331 77.4601 108.331 77.8492C108.331 78.2383 108.293 78.5525 108.218 78.7919C108.144 79.0164 108.016 79.1735 107.837 79.2633C107.567 79.398 107.186 79.4653 106.692 79.4653H102.405V90.7559C102.405 91.1001 102.39 91.3545 102.36 91.5191C102.345 91.6837 102.278 91.8782 102.158 92.1027C102.053 92.3122 101.859 92.4618 101.574 92.5516C101.29 92.6414 100.916 92.6863 100.452 92.6863C99.988 92.6863 99.6139 92.6414 99.3295 92.5516C99.0602 92.4618 98.8656 92.3122 98.7459 92.1027C98.6412 91.8782 98.5738 91.6837 98.5439 91.5191C98.5289 91.3395 98.5215 91.0776 98.5215 90.7335V79.4653H94.2117C93.7329 79.4653 93.3812 79.413 93.1567 79.3082C92.9323 79.1885 92.7826 79.0089 92.7078 78.7695C92.633 78.5301 92.5956 78.2158 92.5956 77.8267C92.5956 77.4377 92.633 77.1309 92.7078 76.9064C92.7826 76.667 92.9098 76.5024 93.0894 76.4126C93.3588 76.2779 93.7404 76.2106 94.2342 76.2106ZM129.957 76.8391C130.076 76.6146 130.278 76.4575 130.563 76.3677C130.847 76.2779 131.206 76.233 131.64 76.233C132.074 76.233 132.418 76.2704 132.673 76.3453C132.927 76.4201 133.121 76.5099 133.256 76.6146C133.391 76.7194 133.496 76.869 133.57 77.0636C133.645 77.318 133.683 77.707 133.683 78.2308V90.6886C133.683 91.0328 133.668 91.2946 133.638 91.4742C133.623 91.6388 133.555 91.8333 133.436 92.0578C133.226 92.4618 132.643 92.6639 131.685 92.6639C130.637 92.6639 130.024 92.387 129.844 91.8333C129.755 91.5789 129.71 91.1899 129.71 90.6661V86.1095H123.761V90.6886C123.761 91.0328 123.746 91.2946 123.716 91.4742C123.701 91.6388 123.634 91.8333 123.514 92.0578C123.305 92.4618 122.721 92.6639 121.764 92.6639C120.716 92.6639 120.103 92.387 119.923 91.8333C119.833 91.5789 119.788 91.1899 119.788 90.6661V78.2083C119.788 77.8641 119.796 77.6098 119.811 77.4451C119.841 77.2656 119.915 77.0636 120.035 76.8391C120.245 76.4351 120.828 76.233 121.786 76.233C122.834 76.233 123.455 76.5099 123.649 77.0636C123.724 77.318 123.761 77.707 123.761 78.2308V82.8099H129.71V78.2083C129.71 77.8641 129.717 77.6098 129.732 77.4451C129.762 77.2656 129.837 77.0636 129.957 76.8391Z" fill="#474747"/>
</svg>
